<?xml version="1.0" standalone="no"?>
<!DOCTYPE svg PUBLIC "-//W3C//DTD SVG 20010904//EN"
 "http://www.w3.org/TR/2001/REC-SVG-20010904/DTD/svg10.dtd">
<svg version="1.0" xmlns="http://www.w3.org/2000/svg"
 width="260.000000pt" height="260.000000pt" viewBox="0 0 260.000000 260.000000"
 preserveAspectRatio="xMidYMid meet">
<metadata>
Created by potrace 1.11, written by Peter Selinger 2001-2013
</metadata>
<g transform="translate(0.000000,260.000000) scale(0.100000,-0.100000)"
fill="#000000" stroke="none">
<path d="M0 1300 l0 -1300 1181 0 c784 0 1178 3 1174 10 -3 6 1 10 9 10 9 0
16 -4 16 -10 0 -6 43 -10 110 -10 l110 0 0 1300 0 1300 -135 0 c-83 0 -135 -4
-135 -10 0 -5 8 -10 17 -10 28 0 -2 -23 -34 -26 -15 -2 -29 -8 -31 -14 -2 -5
-9 -10 -15 -10 -7 0 -39 -26 -72 -57 -33 -30 -77 -66 -97 -79 -21 -14 -38 -29
-38 -35 0 -12 11 -6 57 28 20 15 34 19 38 12 9 -13 8 -13 -35 -33 -43 -20 -73
-38 -93 -55 -9 -7 -21 -10 -26 -7 -5 4 -13 1 -17 -5 -5 -8 -3 -9 7 -4 12 8 12
6 0 -8 -7 -9 -17 -14 -22 -12 -9 6 -41 -10 -72 -34 -59 -48 1 61 81 145 106
111 219 191 286 201 17 3 33 7 35 9 2 2 -514 4 -1147 4 l-1152 0 0 -1300z
m2050 1006 c0 -8 -7 -16 -15 -20 -12 -4 -13 -2 -2 14 14 24 17 25 17 6z
m-1615 -85 c32 -11 68 -21 79 -21 48 0 226 -111 226 -141 0 -6 -5 -7 -11 -4
-6 4 -13 -2 -16 -14 -7 -26 -12 -26 -29 -3 -12 16 -13 15 -14 -7 l0 -24 -26
26 c-14 14 -31 24 -39 21 -7 -3 -16 -1 -20 5 -3 6 -12 11 -18 11 -7 -1 -1 -10
12 -20 l23 -20 -28 2 c-44 3 -78 38 -37 38 15 0 14 2 -3 15 -10 8 -26 15 -35
15 -8 0 -30 16 -49 35 -19 19 -40 35 -48 35 -7 0 -23 5 -35 12 -12 7 -42 13
-67 15 -121 9 -132 8 -137 -4 -3 -7 -11 -13 -19 -13 -8 0 -14 -4 -14 -10 0 -5
-8 -10 -17 -11 -11 0 -13 -3 -5 -6 6 -2 12 -9 12 -14 0 -4 -7 -6 -15 -2 -18 6
-45 -25 -38 -44 3 -7 0 -13 -7 -13 -6 0 -11 -12 -10 -27 3 -44 1 -53 -14 -53
-17 0 -28 37 -14 46 5 4 8 19 6 33 -2 15 2 33 9 40 8 7 11 21 7 33 -4 14 -2
18 5 14 6 -4 11 0 11 8 0 9 7 16 15 16 8 0 15 6 15 14 0 46 230 58 345 17z
m-101 -60 c-2 -3 -12 3 -22 13 -16 17 -16 18 5 5 12 -7 20 -15 17 -18z m131
-71 c-3 -5 -12 -7 -20 -3 -21 7 -19 13 6 13 11 0 18 -4 14 -10z m631 -16 c18
-14 18 -15 -6 -8 -23 6 -24 6 -10 -12 14 -18 14 -18 -2 -5 -18 14 -25 41 -10
41 5 0 17 -7 28 -16z m138 1 c3 -8 1 -15 -4 -15 -6 0 -10 7 -10 15 0 8 2 15 4
15 2 0 6 -7 10 -15z m-749 -25 c3 -5 1 -10 -4 -10 -6 0 -11 5 -11 10 0 6 2 10
4 10 3 0 8 -4 11 -10z m30 -10 c3 -5 1 -10 -4 -10 -6 0 -11 5 -11 10 0 6 2 10
4 10 3 0 8 -4 11 -10z m640 0 c3 -6 -4 -10 -17 -10 -18 0 -20 2 -8 10 19 12
18 12 25 0z m645 -14 c0 -3 -4 -8 -10 -11 -5 -3 -10 -1 -10 4 0 6 5 11 10 11
6 0 10 -2 10 -4z m-1184 -33 c-7 -7 -26 7 -26 19 0 6 6 6 15 -2 9 -7 13 -15
11 -17z m562 2 c-3 -3 -9 2 -12 12 -6 14 -5 15 5 6 7 -7 10 -15 7 -18z m222
15 c0 -5 -4 -10 -10 -10 -5 0 -10 -9 -10 -20 0 -11 -4 -20 -10 -20 -14 0 -12
28 3 45 14 17 27 19 27 5z m101 -17 c-12 -20 -14 -14 -5 12 4 9 9 14 11 11 3
-2 0 -13 -6 -23z m407 0 c-8 -10 -19 -27 -23 -38 -7 -17 -9 -18 -12 -3 -2 9 6
27 19 40 26 27 39 28 16 1z m-580 -18 c-3 -3 -9 2 -12 12 -6 14 -5 15 5 6 7
-7 10 -15 7 -18z m-1267 -25 c4 -19 3 -39 -2 -44 -6 -6 -9 -4 -9 6 0 8 -7 21
-15 28 -21 18 -20 52 2 48 10 -2 20 -17 24 -38z m1586 -37 c-3 -10 -5 -4 -5
12 0 17 2 24 5 18 2 -7 2 -21 0 -30z m321 17 c-13 -20 -38 -28 -38 -12 0 7 31
27 48 31 1 1 -3 -8 -10 -19z m-733 0 c3 -5 4 -10 1 -10 -2 0 -12 -3 -20 -6
-12 -5 -15 -2 -10 10 7 18 20 21 29 6z m272 -22 c-3 -7 -5 -2 -5 12 0 14 2 19
5 13 2 -7 2 -19 0 -25z m-337 7 c16 -19 0 -19 -26 0 -16 12 -16 14 -3 15 9 0
22 -7 29 -15z m429 -11 c-12 -15 -29 -10 -29 9 0 7 4 6 10 -3 9 -14 14 -7 11
13 -1 5 3 6 9 2 8 -5 8 -11 -1 -21z m291 11 c-7 -9 -15 -13 -17 -11 -7 7 7 26
19 26 6 0 6 -6 -2 -15z m134 -30 c12 3 6 -2 -13 -11 -32 -14 -33 -16 -15 -30
11 -9 14 -13 7 -10 -6 4 -14 0 -16 -6 -4 -10 -8 -9 -16 2 -7 11 -5 20 7 34 16
18 16 19 -6 14 -22 -6 -22 0 2 31 8 11 12 9 20 -8 6 -15 15 -20 30 -16z
m-1374 0 c14 -19 14 -19 -2 -6 -10 7 -18 18 -18 24 0 6 1 8 3 6 1 -2 9 -13 17
-24z m1171 -18 c-10 -9 -11 -8 -5 6 3 10 9 15 12 12 3 -3 0 -11 -7 -18z m370
-7 c6 0 7 -5 4 -10 -3 -6 -17 -7 -29 -4 -16 4 -25 0 -29 -10 -8 -20 -27 -20
-52 -3 -16 13 -16 14 11 10 21 -3 36 3 54 20 18 17 26 20 28 10 2 -7 8 -13 13
-13z m-597 -5 c-4 -8 -10 -15 -15 -15 -4 0 -6 7 -3 15 4 8 10 15 15 15 4 0 6
-7 3 -15z m17 -16 c-5 -13 -10 -19 -10 -12 -1 15 10 45 15 40 3 -2 0 -15 -5
-28z m-480 -16 c13 -15 12 -15 -8 -4 -24 12 -29 21 -14 21 5 0 15 -7 22 -17z
m-301 -30 c0 -7 -6 -13 -14 -13 -9 0 -12 8 -8 26 3 19 7 22 13 12 5 -7 9 -19
9 -25z m1346 12 c-19 -14 -56 -21 -56 -10 0 7 41 24 60 24 11 0 10 -3 -4 -14z
m-213 -15 c-3 -11 -10 -23 -16 -27 -5 -3 -8 -2 -5 3 3 5 8 17 11 27 9 24 16
22 10 -3z m342 -5 c-16 -13 -40 -24 -52 -25 -12 0 -30 -3 -40 -6 -12 -5 -15
-4 -8 4 8 8 104 48 125 51 3 1 -8 -10 -25 -24z m-215 5 c0 -5 -4 -10 -9 -10
-6 0 -13 5 -16 10 -3 6 1 10 9 10 9 0 16 -4 16 -10z m-1255 -30 c3 -5 15 -10
26 -10 11 0 17 5 14 10 -11 17 29 10 55 -10 l25 -19 -57 4 c-31 3 -60 0 -63
-5 -10 -16 -25 -11 -19 5 4 8 1 15 -5 15 -6 0 -11 5 -11 10 0 6 6 10 14 10 8
0 18 -4 21 -10z m1190 -3 c-11 -6 -22 -12 -25 -12 -3 0 -11 -4 -17 -8 -8 -5
-13 -3 -13 7 0 13 14 18 65 24 6 1 1 -4 -10 -11z m31 -23 c-24 -23 -19 -28 9
-10 36 23 42 20 15 -9 -13 -14 -29 -25 -37 -25 -7 0 -13 -4 -13 -10 0 -12 2
-12 34 0 30 11 45 -4 19 -19 -10 -6 -14 -11 -9 -11 6 0 21 10 34 23 l24 22 -7
-25 -7 -25 26 25 c24 21 26 22 20 5 -7 -19 -7 -19 13 -2 23 20 38 23 26 5 -14
-23 -12 -40 4 -34 11 4 13 2 9 -9 -4 -13 -2 -14 14 -5 24 13 33 13 25 0 -3 -5
-2 -10 4 -10 5 0 12 4 15 9 6 9 62 8 71 -1 2 -2 -11 -10 -31 -17 -43 -15 -43
-44 -1 -49 20 -2 27 -8 23 -18 -7 -18 8 -18 45 1 16 9 27 20 24 25 -3 5 5 16
17 24 28 20 49 21 22 1 -17 -13 -17 -14 -1 -15 9 0 17 -7 17 -15 0 -18 -28
-34 -50 -28 -10 3 -21 0 -24 -6 -5 -7 7 -11 35 -11 l42 0 -22 -24 -22 -23 37
-6 c22 -4 43 -2 51 5 9 7 13 7 13 -1 0 -19 -67 -43 -88 -32 -11 6 -24 6 -33 0
-11 -7 -11 -9 4 -9 11 0 17 -6 14 -12 -6 -19 52 -58 86 -58 25 0 28 -2 17 -15
-10 -13 -9 -15 9 -15 20 0 21 -2 7 -15 -8 -8 -21 -15 -28 -15 -11 0 -11 -2 0
-9 19 -11 22 -58 6 -72 -11 -9 -18 -8 -29 1 -10 9 -35 11 -74 7 -44 -4 -61 -2
-65 8 -3 8 -22 15 -43 17 -32 3 -38 6 -36 25 2 15 -6 25 -27 34 -15 7 -26 17
-24 21 3 4 -2 8 -10 8 -8 0 -20 8 -25 18 -10 16 -12 16 -26 -3 -9 -11 -13 -25
-11 -32 3 -7 -1 -13 -9 -13 -20 0 -19 13 5 43 16 21 17 27 6 36 -11 9 -16 5
-25 -21 -9 -25 -14 -29 -20 -19 -6 9 -1 22 15 40 27 29 31 46 9 37 -8 -3 -15
-1 -15 4 0 5 -7 7 -15 4 -18 -7 -47 14 -39 27 10 16 -83 14 -103 -3 -7 -5 -18
-8 -25 -5 -7 2 -21 -2 -30 -10 -15 -14 -18 -13 -23 13 -10 46 -14 54 -23 54
-12 0 -23 -93 -15 -131 7 -34 -9 -38 -41 -10 -11 11 -35 32 -52 48 -52 47
-107 233 -57 191 14 -11 15 -8 8 22 l-7 35 21 -24 c20 -23 22 -23 46 -7 14 9
25 14 25 11 0 -2 11 0 25 5 18 7 25 6 25 -3 0 -7 11 -21 25 -31 30 -22 31 -33
8 -60 -11 -12 -1 -7 22 10 22 17 56 38 75 47 19 9 29 17 22 17 -9 0 -7 9 8 27
12 16 17 29 11 31 -19 6 -12 27 17 44 36 22 59 23 38 2z m288 2 c-7 -19 -27
-26 -55 -19 -23 6 -23 7 6 19 40 17 56 17 49 0z m-540 -31 c-4 -8 -11 -15 -16
-15 -6 0 -5 6 2 15 7 8 14 15 16 15 2 0 1 -7 -2 -15z m176 5 c0 -5 -5 -10 -11
-10 -5 0 -7 5 -4 10 3 6 8 10 11 10 2 0 4 -4 4 -10z m-1092 -7 c-10 -2 -26 -2
-35 0 -10 3 -2 5 17 5 19 0 27 -2 18 -5z m-60 -29 c2 -1 -7 -8 -20 -15 -20
-11 -21 -10 -11 3 10 11 10 17 0 28 -10 11 -8 11 8 0 11 -8 22 -15 23 -16z
m306 0 c7 -19 2 -18 -19 6 -16 17 -16 20 -3 15 9 -4 19 -13 22 -21z m1172 7
c-3 -5 -18 -11 -33 -14 -26 -5 -26 -4 -8 9 21 15 49 19 41 5z m-1426 -11 c0
-5 -7 -10 -15 -10 -8 0 -15 5 -15 10 0 6 7 10 15 10 8 0 15 -4 15 -10z m69
-17 c26 -26 3 -24 -25 2 -20 19 -22 24 -8 18 10 -4 25 -13 33 -20z m-164 -13
c4 -6 -5 -10 -20 -10 -15 0 -24 4 -20 10 3 6 12 10 20 10 8 0 17 -4 20 -10z
m65 0 c0 -5 -2 -10 -4 -10 -3 0 -8 5 -11 10 -3 6 -1 10 4 10 6 0 11 -4 11 -10z
m-570 -6 c0 -3 -13 -17 -30 -32 -20 -18 -26 -32 -21 -41 7 -10 13 -11 27 -1
16 10 16 11 2 6 -29 -9 -21 14 8 25 37 13 40 6 14 -31 -22 -31 -22 -32 -1 -19
11 8 21 17 21 20 0 4 9 5 20 2 11 -3 20 -10 20 -15 0 -5 5 -6 10 -3 6 4 17 1
25 -5 8 -7 15 -9 15 -5 0 4 7 2 15 -5 21 -18 69 -4 60 17 -5 15 -4 15 13 0 11
-10 41 -19 76 -21 58 -5 91 -16 46 -16 -42 0 -11 -14 37 -16 53 -4 91 12 74
29 -17 17 -13 22 15 25 21 1 24 -2 19 -17 -4 -13 0 -20 16 -24 26 -7 16 -27
-11 -22 -11 2 -19 0 -17 -5 1 -4 -2 -8 -8 -8 -5 0 -9 4 -7 10 1 5 -2 7 -7 4
-13 -8 -21 -46 -9 -46 6 0 7 -7 4 -16 -5 -13 -4 -14 7 -5 34 28 188 38 172 11
-8 -13 6 -13 25 0 13 8 12 10 -2 10 -10 0 -18 4 -18 9 0 5 -23 12 -50 16 -38
5 -48 10 -41 19 11 13 111 11 121 -2 7 -10 70 -9 70 1 0 4 -4 7 -10 7 -5 0
-10 5 -10 10 0 6 7 10 16 10 8 0 13 4 9 9 -3 6 -18 4 -37 -3 -27 -12 -37 -12
-65 2 -34 16 -48 40 -15 27 9 -4 28 -10 42 -12 l25 -5 -23 17 c-12 9 -27 13
-32 10 -6 -3 -10 -2 -10 4 0 5 -12 4 -27 -4 -31 -16 -36 -15 -27 9 3 9 16 17
28 17 48 3 79 0 85 -9 6 -9 92 -27 118 -25 6 0 9 -6 6 -14 -3 -8 -14 -13 -24
-10 -27 7 -24 -17 4 -32 12 -6 14 -9 5 -7 -10 3 -18 1 -18 -4 0 -18 18 -19 68
-6 28 7 57 9 64 5 7 -5 25 -9 41 -9 15 0 27 -4 27 -10 0 -5 5 -10 11 -10 6 0
1 14 -11 30 -25 35 -19 39 13 9 12 -11 31 -25 42 -31 20 -11 20 -11 1 11 -25
27 -14 38 22 21 15 -8 30 -16 35 -18 4 -2 7 1 7 6 0 5 -10 12 -22 16 -18 5
-20 8 -9 15 10 7 8 12 -10 25 -26 18 -14 21 26 6 20 -8 26 -7 22 2 -2 7 -10
14 -18 14 -8 1 -19 2 -26 3 -6 0 -11 9 -10 19 1 17 4 17 29 5 15 -8 30 -18 33
-24 4 -5 11 -9 16 -9 6 0 7 5 3 12 -4 7 -3 8 5 4 6 -4 9 -10 7 -14 -2 -4 3
-13 11 -21 12 -11 14 -11 12 0 -4 35 1 40 23 25 32 -23 44 -20 22 5 l-19 22
33 -17 c17 -9 32 -20 32 -24 0 -5 7 -17 16 -28 8 -10 13 -13 9 -7 -4 8 -1 11
7 8 19 -8 50 -103 50 -155 1 -90 -1 -100 -17 -94 -8 4 -15 10 -15 14 0 5 -25
34 -55 65 -30 32 -55 54 -55 50 0 -4 -7 -2 -15 5 -9 8 -15 9 -15 2 0 -6 4 -13
9 -16 5 -3 7 -15 4 -26 -4 -16 -8 -18 -19 -9 -20 16 -17 0 3 -25 10 -12 3 -7
-15 9 -35 31 -70 35 -85 9 -4 -8 -15 -14 -22 -14 -8 0 -15 -4 -15 -9 0 -9 -30
-21 -63 -25 -10 -2 -23 -8 -29 -14 -9 -9 -8 -12 7 -12 17 0 17 -1 0 -20 -10
-11 -22 -20 -26 -20 -4 0 -20 -5 -36 -11 -22 -8 -24 -12 -13 -19 10 -7 11 -10
2 -10 -7 0 -31 -9 -55 -19 -23 -10 -50 -21 -59 -25 -10 -3 -18 -12 -18 -21 0
-8 -8 -15 -19 -15 -22 0 -86 -42 -86 -56 0 -5 -20 -31 -45 -57 -31 -33 -53
-47 -71 -47 -34 0 -55 -23 -36 -39 8 -6 17 -9 20 -6 4 3 4 2 1 -3 -3 -4 -10
-8 -15 -8 -5 -1 -13 -2 -19 -3 -5 0 -10 -11 -10 -23 0 -17 -3 -19 -9 -9 -12
18 -25 -4 -16 -27 3 -9 3 -13 -1 -10 -4 4 -15 3 -25 -3 -11 -6 -19 -6 -19 0 0
5 7 11 15 15 8 3 15 11 15 18 0 6 -12 0 -27 -14 -35 -31 -87 -67 -133 -92 -19
-10 -45 -27 -57 -39 -13 -11 -23 -15 -23 -9 0 6 8 15 17 21 37 20 3 21 -37 1
-23 -12 -52 -23 -64 -24 -26 -4 -76 -27 -76 -36 0 -9 22 -30 32 -30 4 0 8 7 8
16 0 13 3 14 13 5 8 -6 17 -8 20 -4 4 3 7 2 7 -4 0 -6 -6 -16 -14 -22 -8 -6
-16 -21 -19 -32 -4 -16 -2 -19 15 -13 14 4 18 2 14 -5 -4 -6 -2 -11 4 -11 8 0
10 -9 6 -25 -5 -19 -3 -23 9 -19 10 4 13 13 10 24 -3 10 -1 21 4 25 6 3 8 0 5
-8 -3 -8 1 -21 9 -29 12 -12 11 -18 -9 -43 -13 -17 -24 -26 -24 -21 0 5 7 18
17 28 29 32 6 30 -28 -2 -19 -18 -49 -45 -66 -62 -29 -27 -46 -57 -25 -45 4 3
8 -8 9 -23 1 -18 -4 -30 -14 -34 -13 -5 -13 -4 -4 8 16 19 3 50 -15 35 -8 -6
-14 -17 -14 -24 0 -6 -9 -22 -20 -35 -22 -25 -27 -45 -8 -34 7 4 8 3 4 -5 -4
-6 -11 -9 -16 -6 -5 3 -11 -4 -15 -15 -3 -11 -11 -20 -17 -20 -5 0 4 25 22 56
32 58 35 77 6 49 -9 -9 -16 -12 -16 -6 0 5 7 16 15 25 25 25 17 31 -10 6 -37
-34 -38 -21 -3 30 17 25 24 39 16 33 -7 -7 -23 -11 -35 -10 -18 1 -20 4 -11
20 5 10 7 29 4 42 -4 14 0 29 9 39 18 18 19 30 2 23 -8 -3 -5 13 10 44 13 27
21 54 18 60 -4 5 -2 15 4 22 5 7 8 25 7 40 -3 21 0 27 11 23 10 -4 11 -1 5 12
-5 9 -7 23 -5 30 6 15 -9 16 -25 0 -9 -9 -12 -9 -12 -1 0 7 10 19 23 29 15 11
16 15 5 11 -23 -8 -23 1 -1 25 16 18 16 18 -3 12 -10 -4 -35 -21 -54 -38 -19
-17 -27 -22 -17 -10 24 28 23 51 0 33 -15 -11 -16 -11 -6 0 6 7 9 19 6 26 -2
8 5 19 18 25 17 10 19 14 8 21 -11 7 -9 9 6 9 11 0 31 12 44 25 13 14 18 25
13 25 -6 0 -18 -10 -26 -22 -12 -17 -18 -19 -30 -9 -8 7 -21 9 -28 5 -18 -10
-1 6 37 36 17 13 22 20 12 17 -15 -6 -17 -3 -12 13 5 16 2 20 -19 20 -14 0
-26 5 -26 10 0 6 6 10 14 10 7 0 19 6 25 14 10 12 5 15 -28 21 l-41 7 33 26
c17 15 34 30 35 35 2 4 8 7 14 7 19 0 37 34 26 47 -8 10 -5 13 10 13 12 0 24
5 27 10 3 6 2 10 -3 10 -6 0 -8 9 -5 21 4 12 0 25 -8 30 -11 6 -8 9 9 9 13 0
22 6 22 16 0 10 -5 14 -16 10 -8 -3 -12 -2 -9 4 3 6 14 10 23 10 21 1 62 30
42 30 -8 0 3 14 24 32 38 32 39 32 15 40 -24 9 -24 10 -4 24 l20 16 -20 -2
c-37 -4 -45 0 -45 20 0 11 -3 19 -7 18 -5 -2 -22 11 -40 28 -31 29 -31 31 -15
48 16 17 16 18 -5 7 -29 -15 -36 -14 -30 3 3 7 0 19 -6 25 -8 8 -8 11 0 11 7
0 14 -4 18 -9 8 -13 47 -9 63 6 14 13 32 17 32 7z m540 2 c0 -3 -4 -8 -10 -11
-5 -3 -10 -1 -10 4 0 6 5 11 10 11 6 0 10 -2 10 -4z m511 -13 c13 -16 12 -17
-3 -4 -17 13 -22 21 -14 21 2 0 10 -8 17 -17z m629 3 c0 -3 -4 -8 -10 -11 -5
-3 -10 -1 -10 4 0 6 5 11 10 11 6 0 10 -2 10 -4z m-1200 -27 c0 -7 12 -10 30
-7 17 3 30 1 30 -4 0 -15 -32 -22 -49 -11 -12 7 -23 8 -35 1 -23 -13 -32 -3
-15 16 16 18 39 21 39 5z m90 7 c0 -3 -4 -8 -10 -11 -5 -3 -10 -1 -10 4 0 6 5
11 10 11 6 0 10 -2 10 -4z m205 -26 c3 -5 2 -10 -4 -10 -5 0 -13 5 -16 10 -3
6 -2 10 4 10 5 0 13 -4 16 -10z m1445 -28 c0 -13 -12 -22 -22 -16 -10 6 -1 24
13 24 5 0 9 -4 9 -8z m-1720 -22 c0 -5 -4 -10 -10 -10 -5 0 -10 5 -10 10 0 6
5 10 10 10 6 0 10 -4 10 -10z m390 -30 c0 -5 -2 -10 -4 -10 -3 0 -8 5 -11 10
-3 6 -1 10 4 10 6 0 11 -4 11 -10z m-880 -50 c0 -5 -5 -10 -11 -10 -5 0 -7 5
-4 10 3 6 8 10 11 10 2 0 4 -4 4 -10z m1350 -41 c0 -6 -4 -7 -10 -4 -5 3 -10
11 -10 16 0 6 5 7 10 4 6 -3 10 -11 10 -16z m880 11 c-19 -12 -63 -13 -56 -2
3 5 20 9 38 10 23 1 28 -2 18 -8z m-535 -29 c3 -5 1 -12 -4 -15 -13 -8 -42 4
-35 15 7 12 31 12 39 0z m-195 -62 c0 -7 -6 -4 -15 7 -19 25 -19 40 0 20 8 -8
15 -20 15 -27z m271 -52 c-13 -13 -14 5 -3 54 l7 34 3 -39 c2 -21 -1 -43 -7
-49z m-301 38 c0 -5 -5 -3 -10 5 -5 8 -10 20 -10 25 0 6 5 3 10 -5 5 -8 10
-19 10 -25z m-30 -26 c0 -6 -4 -7 -10 -4 -5 3 -10 11 -10 16 0 6 5 7 10 4 6
-3 10 -11 10 -16z m140 5 c0 -8 -4 -12 -10 -9 -5 3 -10 10 -10 16 0 5 5 9 10
9 6 0 10 -7 10 -16z m715 -4 c7 -12 -2 -12 -30 0 -19 8 -19 9 2 9 12 1 25 -3
28 -9z m-440 -11 c10 -15 2 -20 -36 -24 l-34 -4 25 19 c29 23 36 24 45 9z
m-785 -34 c0 -17 -2 -18 -24 -9 -23 9 -20 24 4 24 11 0 20 -7 20 -15z m490
-10 c0 -25 -15 -24 -16 1 -1 13 2 21 7 18 5 -3 9 -11 9 -19z m-560 5 c0 -5 -4
-10 -10 -10 -5 0 -10 5 -10 10 0 6 5 10 10 10 6 0 10 -4 10 -10z m489 -11 c1
8 4 12 7 9 3 -3 -1 -16 -8 -27 -10 -17 -10 -23 -1 -29 6 -4 14 -19 16 -32 5
-34 17 -60 28 -60 4 0 5 8 2 18 -6 15 -6 16 9 1 9 -9 18 -27 21 -40 3 -17 5
-12 6 14 1 24 5 36 12 32 6 -4 8 -14 5 -22 -9 -24 4 -35 21 -18 9 9 13 26 10
40 -2 14 0 25 4 25 5 0 9 -7 9 -16 0 -8 4 -13 9 -9 5 3 12 -4 16 -14 3 -11 12
-18 19 -15 7 3 16 -2 20 -11 4 -13 13 -15 32 -11 17 5 25 3 23 -6 -3 -27 1
-38 16 -38 8 0 15 -4 15 -10 0 -5 9 -10 21 -10 11 0 17 -4 14 -10 -5 -9 7 -14
26 -12 4 1 5 -8 2 -18 -8 -30 4 -24 32 17 30 45 34 34 4 -13 -16 -27 -18 -37
-9 -55 12 -21 15 -19 88 52 65 64 69 67 32 22 -23 -29 -45 -53 -49 -55 -3 -2
-16 -15 -29 -29 -20 -23 -21 -30 -11 -53 15 -33 19 -33 54 4 28 29 45 38 45
23 0 -5 -18 -21 -40 -36 -42 -30 -51 -47 -24 -47 9 0 12 -5 8 -12 -5 -7 -10
-31 -12 -53 -2 -22 -8 -45 -14 -52 -6 -7 -7 -13 -3 -13 4 0 2 -6 -4 -13 -6 -8
-8 -17 -4 -20 3 -4 0 -13 -6 -21 -7 -8 -10 -19 -7 -24 6 -10 -43 -36 -51 -28
-3 3 0 20 5 38 33 106 16 183 -49 228 -19 13 -46 35 -61 48 -24 22 -31 24 -53
14 -13 -6 -32 -9 -40 -5 -11 4 -18 -1 -22 -16 -4 -17 -8 -19 -19 -10 -8 6 -20
9 -28 6 -7 -3 -19 0 -25 6 -13 13 -25 4 -47 -35 -36 -61 -46 -95 -45 -153 l0
-62 -41 14 c-22 8 -48 12 -57 10 -12 -4 -11 -7 7 -12 12 -4 22 -11 22 -15 0
-4 15 -13 33 -21 17 -7 34 -14 36 -16 10 -8 -36 -32 -61 -33 -22 0 -28 -5 -28
-21 0 -16 -4 -19 -20 -14 -10 3 -28 1 -39 -4 -13 -7 -21 -8 -24 -1 -3 6 -4 5
-3 -1 1 -7 10 -13 20 -15 28 -4 38 -19 13 -20 -12 0 -31 -4 -41 -9 -16 -7 -18
-5 -13 8 6 15 4 16 -14 6 -26 -14 -36 -5 -18 17 13 16 12 16 -7 6 -12 -6 -24
-9 -27 -5 -4 3 -39 7 -79 8 -40 1 -83 7 -95 13 -12 7 -34 12 -49 12 -33 0 -21
16 16 23 24 4 24 4 -2 6 -28 1 -40 21 -14 21 8 0 18 5 22 11 4 8 -4 9 -27 4
-22 -4 -29 -3 -20 3 17 12 -1 24 -23 16 -9 -3 -16 -1 -16 5 0 6 -19 11 -42 12
-43 1 -43 1 21 18 89 23 96 46 11 37 -54 -6 -62 -5 -52 7 9 10 32 13 94 10 50
-2 75 0 64 5 -18 8 -18 9 -2 15 10 4 23 4 28 0 6 -3 8 -1 5 5 -12 19 4 41 36
48 18 4 26 9 20 11 -18 7 -16 23 3 23 18 0 44 23 44 39 0 6 6 11 14 11 8 0 18
5 22 12 4 7 3 8 -4 4 -7 -4 -12 -1 -12 7 0 8 7 18 16 21 8 3 12 11 9 16 -4 7
2 10 17 9 39 -4 59 1 53 11 -3 6 -1 10 6 10 8 0 8 4 -1 15 -7 8 -8 15 -2 15 5
0 15 -7 22 -15 17 -20 27 -19 35 5 4 11 10 18 14 16 4 -3 7 5 7 17 -1 13 4 21
12 20 6 -2 12 4 12 13 0 8 5 12 10 9 6 -3 10 -1 10 6 0 10 3 10 12 1 7 -7 18
-12 26 -12 12 0 12 3 2 15 -9 10 -9 15 -1 15 6 0 11 16 11 35 0 19 4 35 9 35
5 0 7 -8 4 -18 -3 -12 4 -22 21 -30 16 -7 26 -8 26 -2 0 6 -3 10 -7 10 -5 0
-9 37 -10 83 -1 52 2 75 7 62 5 -12 9 -14 9 -6z m-49 -54 c0 -5 -5 -3 -10 5
-5 8 -10 20 -10 25 0 6 5 3 10 -5 5 -8 10 -19 10 -25z m17 -7 c-3 -8 -6 -5 -6
6 -1 11 2 17 5 13 3 -3 4 -12 1 -19z m86 8 c3 -8 -1 -17 -9 -20 -9 -4 -14 1
-14 14 0 23 15 27 23 6z m113 -33 c-7 -7 -26 7 -26 19 0 6 6 6 15 -2 9 -7 13
-15 11 -17z m-96 -3 c0 -5 -2 -10 -4 -10 -3 0 -8 5 -11 10 -3 6 -1 10 4 10 6
0 11 -4 11 -10z m616 1 c-6 -9 -46 -22 -46 -15 0 3 10 9 23 14 29 11 29 11 23
1z m-1216 -11 c0 -5 -2 -10 -4 -10 -3 0 -8 5 -11 10 -3 6 -1 10 4 10 6 0 11
-4 11 -10z m780 -11 c0 -6 -4 -7 -10 -4 -5 3 -10 11 -10 16 0 6 5 7 10 4 6 -3
10 -11 10 -16z m-847 4 c-7 -2 -19 -2 -25 0 -7 3 -2 5 12 5 14 0 19 -2 13 -5z
m1203 -12 c-6 -9 -46 -22 -46 -15 0 3 10 9 23 14 29 11 29 11 23 1z m-373 -34
c-7 -11 -23 2 -23 19 0 12 2 12 14 2 8 -7 12 -16 9 -21z m-820 -2 c-3 -8 -17
-15 -32 -14 l-26 1 28 10 c15 5 24 14 21 20 -4 7 -2 8 4 4 6 -4 9 -13 5 -21z
m467 6 c0 -8 -19 -37 -21 -31 -6 33 -4 47 8 43 7 -3 13 -8 13 -12z m571 -8
c-5 -10 -17 -27 -26 -38 -16 -19 -17 -19 -3 5 26 46 29 50 34 50 3 0 0 -8 -5
-17z m-996 -3 c3 -5 1 -10 -4 -10 -6 0 -11 5 -11 10 0 6 2 10 4 10 3 0 8 -4
11 -10z m227 -12 c-7 -7 -12 -8 -12 -2 0 14 12 26 19 19 2 -3 -1 -11 -7 -17z
m828 7 c0 -2 -20 -18 -45 -35 -25 -17 -45 -29 -45 -26 0 4 80 64 88 66 1 0 2
-2 2 -5z m-997 -18 c-3 -5 4 -6 17 -2 15 5 20 4 16 -4 -8 -12 -36 -14 -60 -5
-21 8 -13 20 13 20 11 0 17 -4 14 -9z m272 2 c11 -17 -1 -21 -15 -4 -8 9 -8
15 -2 15 6 0 14 -5 17 -11z m-240 -49 c-7 -12 -42 -13 -48 -2 -3 4 8 8 24 9
17 1 27 -2 24 -7z m-1210 -100 c3 -5 -1 -10 -10 -10 -9 0 -13 5 -10 10 3 6 8
10 10 10 2 0 7 -4 10 -10z m2215 -20 c-8 -5 -19 -10 -25 -10 -5 0 -3 5 5 10 8
5 20 10 25 10 6 0 3 -5 -5 -10z m-1140 -60 c0 -5 -8 -10 -17 -10 -15 0 -16 2
-3 10 19 12 20 12 20 0z m107 -26 c-3 -3 -12 -4 -19 -1 -8 3 -5 6 6 6 11 1 17
-2 13 -5z m-683 -18 c-6 -16 -54 -51 -54 -39 0 6 49 51 57 53 1 0 0 -6 -3 -14z
m1432 -8 c3 -5 4 -11 1 -14 -7 -7 -57 14 -57 24 0 12 48 3 56 -10z m-76 -2 c0
-13 -20 -26 -40 -26 -4 0 -10 7 -13 14 -4 10 -1 13 9 9 7 -3 14 0 14 6 0 6 7
11 15 11 8 0 15 -6 15 -14z m-851 -90 c-11 -9 -69 -14 -69 -6 0 6 17 10 37 10
20 0 34 -2 32 -4z m-96 -13 c-7 -2 -19 -2 -25 0 -7 3 -2 5 12 5 14 0 19 -2 13
-5z m-870 -43 c-6 -22 -21 -35 -29 -27 -7 7 15 47 25 47 5 0 7 -9 4 -20z m407
-25 c-7 -8 -17 -15 -23 -15 -5 0 -2 9 8 20 21 23 35 19 15 -5z m1707 -1 c-3
-3 -12 -4 -19 -1 -8 3 -5 6 6 6 11 1 17 -2 13 -5z m-1473 -23 c-18 -11 -46
-38 -65 -60 -18 -23 -34 -39 -37 -36 -6 6 77 99 96 107 33 13 36 8 6 -11z
m-324 -5 c0 -2 -7 -7 -16 -10 -8 -3 -12 -2 -9 4 6 10 25 14 25 6z m33 -48
c-31 -62 -38 -72 -28 -39 8 26 44 91 51 91 2 0 -8 -24 -23 -52z m907 -58 c0
-5 -5 -10 -11 -10 -5 0 -7 5 -4 10 3 6 8 10 11 10 2 0 4 -4 4 -10z m-1090 -30
c-24 -15 -37 -11 -16 5 11 8 22 12 25 9 3 -3 -1 -9 -9 -14z m62 -32 c-7 -7
-12 -8 -12 -2 0 6 3 14 7 17 3 4 9 5 12 2 2 -3 -1 -11 -7 -17z m-78 -13 c-9
-14 -19 -23 -22 -20 -5 4 26 45 35 45 2 0 -4 -11 -13 -25z m40 -40 c-4 -8 -11
-15 -16 -15 -6 0 -5 6 2 15 7 8 14 15 16 15 2 0 1 -7 -2 -15z m-49 -140 c-15
-19 -30 -34 -32 -31 -7 7 25 64 39 69 22 8 21 -1 -7 -38z m1948 -134 c23 -6
54 -12 70 -16 15 -3 27 -10 27 -17 0 -17 -83 -2 -122 22 -37 23 -34 24 25 11z
m164 -17 c-3 -3 -12 -4 -19 -1 -8 3 -5 6 6 6 11 1 17 -2 13 -5z"/>
<path d="M450 2163 c1 -16 26 -40 50 -48 14 -4 34 -13 45 -20 16 -10 23 -10
33 1 7 8 8 15 2 19 -6 3 -10 0 -10 -7 0 -8 -3 -9 -8 -3 -12 17 -52 36 -62 30
-6 -4 -10 -2 -10 4 0 6 -9 15 -20 21 -11 6 -20 7 -20 3z"/>
<path d="M602 2098 c2 -6 15 -18 29 -27 l24 -15 -24 27 c-26 29 -35 34 -29 15z"/>
<path d="M2295 1510 c-3 -5 -2 -10 4 -10 5 0 13 5 16 10 3 6 2 10 -4 10 -5 0
-13 -4 -16 -10z"/>
<path d="M2366 1502 c-3 -6 3 -12 15 -15 12 -3 19 -1 16 6 -5 15 -24 20 -31 9z"/>
<path d="M1885 1469 c-4 -6 -5 -12 -2 -15 2 -3 7 2 10 11 7 17 1 20 -8 4z"/>
<path d="M2440 1340 c0 -5 5 -10 10 -10 6 0 10 5 10 10 0 6 -4 10 -10 10 -5 0
-10 -4 -10 -10z"/>
<path d="M2487 1269 c7 -7 15 -10 18 -7 3 3 -2 9 -12 12 -14 6 -15 5 -6 -5z"/>
<path d="M620 1469 c0 -5 5 -7 10 -4 6 3 10 8 10 11 0 2 -4 4 -10 4 -5 0 -10
-5 -10 -11z"/>
<path d="M1400 1461 c0 -5 5 -13 10 -16 6 -3 10 -2 10 4 0 5 -4 13 -10 16 -5
3 -10 2 -10 -4z"/>
<path d="M585 1420 c-3 -6 1 -7 9 -4 18 7 21 14 7 14 -6 0 -13 -4 -16 -10z"/>
<path d="M757 1418 c-15 -5 -25 -14 -21 -19 5 -8 -2 -10 -22 -8 -4 0 -12 -10
-18 -22 -6 -12 -19 -23 -28 -25 -9 -1 -27 -9 -40 -18 -25 -18 -17 -22 12 -6
10 6 21 6 24 2 3 -5 -11 -17 -32 -26 -32 -16 -34 -19 -18 -28 13 -7 21 -6 29
2 9 10 8 12 -6 7 -10 -4 -16 -3 -12 2 7 13 45 9 45 -4 0 -5 -9 -16 -20 -23
-11 -7 -20 -17 -20 -23 0 -6 -9 -24 -21 -40 -25 -35 -18 -37 24 -5 42 31 77
49 77 39 0 -5 -14 -17 -31 -27 -40 -24 -69 -52 -69 -68 0 -7 11 0 25 15 14 15
32 27 39 27 7 0 21 9 31 20 22 24 27 70 8 63 -7 -3 -13 2 -13 11 0 10 9 16 25
16 26 0 34 15 13 23 -7 3 1 6 17 6 17 1 37 6 45 11 11 7 6 9 -17 6 -18 -2 -34
2 -36 8 -3 7 -12 4 -26 -8 -11 -11 -24 -17 -27 -13 -3 3 4 10 15 16 14 8 18
17 14 29 -7 16 -6 16 11 0 14 -15 21 -16 39 -6 12 7 26 11 31 10 4 -2 14 3 22
9 8 6 29 9 47 6 38 -6 83 18 54 29 -9 3 -40 -1 -71 -10 -67 -20 -88 -20 -63
-2 9 7 17 16 17 19 0 11 -26 14 -53 5z"/>
<path d="M538 1322 c-10 -2 -18 -8 -18 -13 0 -13 27 -11 35 2 9 13 4 16 -17
11z"/>
<path d="M490 1309 c0 -5 5 -7 10 -4 6 3 10 8 10 11 0 2 -4 4 -10 4 -5 0 -10
-5 -10 -11z"/>
<path d="M580 1310 c-8 -5 -11 -12 -7 -16 4 -4 13 -2 19 4 15 15 7 24 -12 12z"/>
<path d="M560 1258 c-14 -6 -20 -12 -14 -14 15 -6 60 11 48 18 -5 3 -20 1 -34
-4z"/>
<path d="M581 1209 c-13 -11 -31 -24 -40 -30 -12 -8 -13 -12 -3 -15 17 -8 5
-24 -17 -24 -11 0 -29 -9 -42 -20 l-24 -19 36 2 c36 3 94 39 82 51 -4 3 4 20
16 37 28 37 24 44 -8 18z"/>
<path d="M639 1128 l-12 -23 24 20 c13 11 26 21 28 22 2 2 -3 3 -12 3 -9 0
-22 -10 -28 -22z"/>
<path d="M471 1048 c-14 -23 -14 -23 8 -4 22 20 25 26 13 26 -4 0 -13 -10 -21
-22z"/>
<path d="M469 964 c-7 -9 -22 -19 -32 -23 -18 -7 -18 -8 -3 -24 19 -18 41 -14
51 11 5 13 1 12 -16 -4 l-23 -19 22 38 c23 39 23 47 1 21z"/>
<path d="M727 973 c-12 -12 -7 -22 8 -17 8 4 15 10 15 15 0 11 -14 12 -23 2z"/>
<path d="M657 929 c-20 -17 -42 -40 -49 -52 -10 -20 -10 -21 6 -7 10 8 29 14
44 15 14 0 27 7 30 15 4 12 2 13 -9 3 -8 -6 -20 -9 -27 -4 -8 4 -2 13 18 25
17 9 30 21 30 27 0 13 -1 12 -43 -22z"/>
<path d="M410 879 c0 -5 5 -7 10 -4 6 3 10 8 10 11 0 2 -4 4 -10 4 -5 0 -10
-5 -10 -11z"/>
<path d="M128 853 c7 -3 16 -2 19 1 4 3 -2 6 -13 5 -11 0 -14 -3 -6 -6z"/>
<path d="M340 740 c-8 -5 -10 -10 -5 -10 6 0 17 5 25 10 8 5 11 10 5 10 -5 0
-17 -5 -25 -10z"/>
<path d="M230 729 c0 -5 5 -7 10 -4 6 3 10 8 10 11 0 2 -4 4 -10 4 -5 0 -10
-5 -10 -11z"/>
<path d="M266 554 c-5 -14 -4 -15 9 -4 17 14 19 20 6 20 -5 0 -12 -7 -15 -16z"/>
<path d="M199 543 c-13 -16 -12 -17 4 -4 9 7 17 15 17 17 0 8 -8 3 -21 -13z"/>
<path d="M145 500 c-3 -5 -1 -10 4 -10 6 0 11 5 11 10 0 6 -2 10 -4 10 -3 0
-8 -4 -11 -10z"/>
<path d="M1735 1060 c3 -5 8 -10 11 -10 2 0 4 5 4 10 0 6 -5 10 -11 10 -5 0
-7 -4 -4 -10z"/>
<path d="M1760 1011 c0 -6 4 -13 10 -16 6 -3 7 1 4 9 -7 18 -14 21 -14 7z"/>
<path d="M1625 540 c-3 -5 1 -10 9 -10 9 0 16 5 16 10 0 6 -4 10 -9 10 -6 0
-13 -4 -16 -10z"/>
<path d="M2012 2350 c-12 -12 -22 -24 -22 -27 0 -4 11 4 25 17 23 22 29 30 22
30 -2 0 -13 -9 -25 -20z"/>
</g>
</svg>
